<svg version="1.0" xmlns="http://www.w3.org/2000/svg"
 width="250.000000pt" height="115.000000pt" viewBox="0 0 250.000000 115.000000"
 preserveAspectRatio="xMidYMid meet">
<metadata>
Minnesota Democratic–Farmer–Labor Party
</metadata>
<g transform="translate(0.000000,115.000000) scale(0.100000,-0.100000)"
fill="#000000" stroke="none">
<path d="M1777 1053 c-4 -3 -7 -15 -7 -25 0 -17 -21 -18 -475 -18 -313 0 -475
-3 -475 -10 0 -7 163 -9 483 -8 l482 3 3 28 c5 40 25 28 36 -21 9 -39 12 -41
60 -53 28 -6 56 -14 61 -18 6 -3 43 -6 83 -6 65 0 75 -3 91 -23 13 -18 23 -22
42 -17 17 4 33 0 52 -16 26 -20 31 -20 74 -8 36 10 48 10 51 1 2 -7 24 -12 52
-12 65 0 70 -14 12 -35 -54 -21 -78 -36 -184 -119 -75 -59 -78 -62 -78 -103 0
-37 -4 -44 -30 -58 -31 -16 -51 -62 -32 -74 7 -4 8 -26 3 -65 l-8 -58 45 -27
c24 -14 62 -41 84 -58 22 -18 43 -33 47 -33 7 0 31 -44 31 -55 0 -3 -513 -5
-1140 -5 -753 0 -1140 -3 -1140 -10 0 -7 388 -10 1145 -10 l1145 0 0 29 c0 24
-12 40 -67 86 -38 31 -83 63 -100 70 -36 15 -38 26 -23 90 7 30 6 43 -5 56
-17 18 -7 35 38 62 22 15 27 25 27 60 1 41 3 43 93 113 51 39 119 81 152 94
33 13 69 28 80 33 19 10 19 10 0 18 -11 4 -38 8 -60 8 -22 1 -52 8 -67 15 -23
12 -35 13 -70 2 -40 -12 -45 -11 -75 12 -21 16 -41 22 -54 19 -14 -4 -27 1
-38 13 -12 15 -31 20 -77 21 -33 1 -66 -1 -72 -5 -7 -4 -12 -3 -12 2 0 5 -26
16 -57 23 -57 14 -58 15 -66 57 -7 35 -12 42 -31 42 -12 0 -26 -3 -29 -7z"/>
<path d="M0 572 l0 -382 173 0 c197 0 279 11 357 46 129 59 190 166 190 335 0
144 -50 249 -147 306 -84 49 -160 63 -375 70 l-198 6 0 -381z m387 169 c59
-27 76 -65 75 -167 0 -124 -29 -165 -129 -184 -86 -16 -83 -23 -83 186 l0 184
48 0 c26 0 66 -9 89 -19z"/>
<path d="M800 570 l0 -380 105 0 105 0 0 140 0 140 135 0 135 0 0 90 0 90
-135 0 -135 0 0 55 0 55 155 0 155 0 0 95 0 95 -260 0 -260 0 0 -380z"/>
<path d="M1427 943 c-4 -3 -7 -174 -7 -380 l0 -373 310 0 310 0 0 95 0 95
-175 0 -175 0 0 285 0 285 -128 0 c-71 0 -132 -3 -135 -7z"/>
</g>
</svg>
